<?xml version="1.0" standalone="no"?>
<!DOCTYPE svg PUBLIC "-//W3C//DTD SVG 20010904//EN"
 "http://www.w3.org/TR/2001/REC-SVG-20010904/DTD/svg10.dtd">
<svg version="1.0" xmlns="http://www.w3.org/2000/svg"
 width="1138.000000pt" height="1138.000000pt" viewBox="0 0 1138.000000 1138.000000"
 preserveAspectRatio="xMidYMid meet">
<metadata>
Created by potrace 1.14, written by Peter Selinger 2001-2017
</metadata>
<g transform="translate(0.000000,1138.000000) scale(0.100000,-0.100000)"
fill="#000000" stroke="none">
<path d="M302 10310 c-12 -11 -26 -20 -32 -20 -10 0 -14 -18 -10 -59 1 -13 -2
-21 -7 -18 -5 3 -10 -4 -10 -16 -2 -17 0 -18 7 -7 6 10 9 5 8 -18 -1 -17 5
-39 13 -49 12 -15 12 -16 -1 -8 -12 6 -13 5 -2 -6 6 -7 12 -17 12 -22 0 -4 -6
-5 -12 -1 -10 6 -10 5 -1 -7 13 -16 12 -36 0 -56 -5 -8 -4 -13 2 -13 13 0 10
-22 -4 -32 -6 -5 -6 -8 1 -8 8 0 12 -30 13 -92 1 -51 4 -109 6 -128 2 -19 4
-48 4 -65 1 -23 4 -27 11 -15 8 12 10 10 11 -10 0 -14 3 -34 5 -45 2 -11 5
-28 6 -37 1 -9 6 -14 10 -12 5 3 6 10 3 15 -4 5 -2 9 3 9 5 0 12 -21 15 -46 2
-25 14 -59 26 -75 12 -15 21 -40 21 -54 0 -14 5 -25 10 -25 6 0 10 -10 10 -22
0 -38 12 -69 24 -65 13 5 35 -22 36 -43 0 -9 9 -23 20 -33 11 -9 20 -24 20
-32 0 -8 5 -15 10 -15 6 0 10 -5 10 -11 0 -5 -6 -7 -12 -3 -7 4 -5 -2 5 -13 9
-11 17 -25 17 -33 0 -10 3 -10 16 0 8 8 14 9 13 4 -1 -5 -1 -22 0 -37 1 -20 5
-26 14 -21 7 5 6 0 -3 -11 -9 -11 -10 -16 -3 -11 7 4 13 2 13 -3 0 -6 7 -11
16 -11 8 0 12 -4 9 -10 -3 -5 1 -10 9 -10 10 0 16 -9 16 -25 0 -14 4 -25 9
-25 5 0 15 -16 22 -35 10 -26 19 -35 36 -35 16 0 23 -6 23 -19 0 -21 23 -45
33 -34 4 3 7 -3 7 -15 0 -15 6 -22 20 -22 19 0 44 -32 33 -43 -3 -3 6 -9 20
-12 16 -4 31 -21 43 -46 13 -26 26 -39 39 -39 28 0 49 -16 41 -29 -4 -6 -2
-11 3 -11 6 0 11 -9 11 -20 0 -11 5 -19 12 -18 7 2 12 -4 13 -12 0 -9 11 -16
28 -18 15 -2 27 -9 27 -15 0 -7 16 -21 35 -31 19 -11 35 -25 35 -33 0 -8 3
-12 8 -10 4 2 18 -7 31 -21 l25 -25 -44 6 c-25 3 -46 11 -48 16 -2 6 -12 11
-21 11 -10 0 -21 3 -25 8 -8 7 -13 8 -42 11 -10 1 -14 7 -11 15 4 9 -2 17 -13
21 -11 4 -27 13 -35 21 -8 9 -27 17 -42 20 -16 2 -35 7 -43 11 -8 3 -19 7 -24
7 -5 1 -14 10 -20 21 -14 25 -28 35 -39 28 -4 -3 -11 4 -14 16 -4 15 -16 22
-49 27 -24 3 -44 11 -44 16 0 5 6 6 13 3 6 -3 1 2 -13 12 -14 10 -35 28 -48
41 -13 12 -28 20 -33 17 -5 -4 -9 2 -9 12 0 15 -2 16 -10 3 -8 -12 -10 -9 -10
13 0 16 -4 26 -9 23 -5 -4 -25 10 -45 29 -20 19 -43 35 -51 35 -8 0 -15 7 -15
16 0 8 -5 12 -10 9 -6 -4 -7 -11 -4 -17 4 -7 2 -8 -5 -4 -6 4 -9 11 -6 16 3 5
-11 14 -30 21 -25 10 -35 19 -35 35 0 14 -8 24 -23 28 -28 7 -112 -24 -113
-41 -3 -38 -5 -44 -13 -39 -4 3 -9 -29 -10 -70 -2 -60 1 -74 11 -68 9 5 8 1
-2 -11 -9 -11 -10 -16 -2 -11 9 5 12 -2 12 -28 0 -19 7 -42 16 -50 8 -9 11
-16 5 -16 -6 0 -11 -5 -11 -11 0 -5 5 -7 11 -3 7 4 7 -1 -1 -16 -8 -15 -8 -20
-1 -16 7 4 11 -1 11 -13 0 -10 5 -21 11 -23 5 -2 13 -22 16 -46 3 -23 9 -39
14 -36 8 5 13 -10 10 -29 -1 -5 8 -11 19 -14 11 -3 21 -10 22 -17 3 -25 4 -32
11 -53 4 -11 19 -24 32 -27 23 -6 32 -30 26 -68 0 -5 8 -8 18 -8 11 0 26 -7
34 -15 8 -8 17 -11 21 -8 3 3 10 -6 15 -19 5 -14 23 -32 39 -39 20 -9 30 -20
30 -35 -1 -25 21 -53 37 -47 6 2 16 -10 23 -26 7 -16 22 -31 33 -34 12 -3 18
-10 14 -16 -4 -7 14 -20 44 -34 40 -17 51 -27 51 -44 0 -13 5 -23 11 -23 5 0
7 5 4 10 -13 21 11 9 29 -15 11 -15 29 -25 43 -25 13 0 22 -4 19 -8 -7 -11 25
-30 46 -26 10 1 20 -6 23 -17 4 -10 13 -19 21 -19 8 0 14 -7 14 -15 0 -13 11
-18 65 -28 11 -2 19 -9 17 -15 -1 -7 5 -12 13 -12 9 0 25 -9 37 -20 12 -10 25
-17 29 -14 5 3 14 -6 20 -19 9 -20 21 -26 61 -31 43 -6 49 -10 45 -26 -3 -13
1 -21 14 -25 10 -4 19 -11 19 -16 0 -6 5 -7 10 -4 6 3 10 1 10 -6 0 -7 2 -10
6 -7 3 3 27 -3 53 -13 27 -10 52 -15 56 -11 5 4 5 1 1 -5 -5 -9 0 -13 13 -13
11 0 26 -7 35 -15 8 -8 23 -16 33 -18 65 -13 108 -36 108 -58 0 -13 9 -17 58
-22 26 -3 52 -9 58 -13 11 -6 20 -8 67 -13 6 0 12 -10 12 -22 0 -15 -5 -19
-17 -15 -10 2 -67 8 -128 11 -60 4 -111 11 -113 16 -2 5 -14 9 -26 9 -13 0
-38 5 -56 11 -22 8 -34 8 -39 1 -7 -11 -35 -9 -131 12 -36 8 -68 12 -73 9 -9
-5 -9 11 0 20 3 4 11 2 18 -3 8 -7 12 -6 12 3 0 7 -10 14 -21 14 -52 4 -74 8
-70 14 5 8 -70 16 -104 11 -14 -2 -20 -8 -16 -15 5 -9 4 -9 -6 0 -16 15 -50
-4 -43 -24 3 -9 -3 -16 -15 -20 -27 -7 -34 -29 -27 -79 11 -74 17 -94 26 -88
5 3 9 -4 9 -16 0 -36 19 -62 41 -55 16 5 19 1 19 -29 0 -33 7 -41 33 -37 4 0
7 -5 7 -13 0 -8 9 -21 20 -29 11 -8 17 -17 13 -20 -3 -4 0 -7 7 -7 7 0 23 -12
36 -27 13 -16 24 -24 24 -20 0 5 7 1 16 -7 8 -9 12 -20 9 -26 -3 -6 2 -13 12
-17 10 -3 33 -21 50 -40 18 -18 38 -33 44 -33 16 0 39 -26 31 -36 -4 -5 1 -2
11 6 15 11 18 11 15 0 -3 -14 2 -16 40 -19 15 -1 15 -3 2 -11 -12 -8 -10 -10
8 -10 15 0 26 -7 29 -19 3 -13 21 -22 57 -30 30 -7 62 -18 72 -26 11 -8 40
-17 67 -21 26 -4 47 -10 47 -14 0 -12 98 -40 143 -41 11 0 15 -5 10 -12 -4 -7
2 -5 12 3 10 8 16 10 12 4 -7 -11 18 -16 205 -40 20 -3 57 -5 82 -6 26 0 49
-5 53 -11 3 -5 2 -7 -3 -4 -6 3 -16 2 -22 -2 -18 -11 57 -14 341 -15 136 -1
247 -2 247 -3 0 -4 -64 -37 -75 -38 -5 -1 -20 -3 -32 -3 -17 -2 -23 -8 -23
-26 0 -19 -7 -26 -30 -31 -16 -4 -30 -11 -30 -16 0 -5 -13 -9 -28 -9 -15 0
-33 -5 -39 -11 -6 -6 -38 -13 -72 -16 -54 -5 -65 -11 -63 -34 1 -5 -35 -9 -85
-9 -12 0 -25 -5 -28 -10 -3 -6 -16 -10 -28 -10 -16 0 -23 -6 -23 -20 0 -11 4
-20 8 -20 4 0 8 -23 8 -51 0 -33 4 -48 11 -44 6 4 13 -2 16 -14 3 -12 12 -21
20 -21 8 0 12 -4 9 -9 -7 -11 38 -31 69 -31 14 0 25 -5 25 -12 0 -6 3 -8 6 -5
9 8 44 -11 44 -24 0 -6 -6 -7 -12 -3 -9 5 -10 4 -3 -4 6 -5 30 -13 55 -16 25
-3 56 -7 70 -9 51 -7 95 -20 109 -31 11 -8 13 -8 7 2 -4 6 -3 12 3 12 5 0 12
-4 15 -9 4 -5 45 -12 93 -16 82 -7 121 -22 105 -41 -4 -5 2 -2 12 6 18 13 19
13 14 -1 -5 -12 0 -15 20 -14 15 1 38 -2 52 -5 19 -4 7 -10 -55 -24 -94 -22
-123 -35 -105 -46 8 -5 3 -10 -15 -14 -44 -11 -55 -30 -55 -90 0 -51 2 -56 24
-62 17 -4 23 -11 19 -22 -4 -10 -2 -13 5 -8 8 5 12 -1 12 -18 0 -14 5 -28 11
-31 6 -4 8 -14 5 -22 -3 -8 -2 -11 3 -8 6 3 18 -8 28 -25 9 -17 23 -28 30 -26
16 6 37 -30 29 -50 -3 -9 1 -14 12 -14 10 0 28 -9 40 -20 12 -12 22 -16 22
-10 0 7 7 4 16 -4 8 -9 22 -16 29 -16 7 0 20 -6 27 -13 7 -8 31 -17 51 -21 21
-4 53 -16 70 -27 18 -10 49 -19 70 -19 20 0 37 -5 37 -11 0 -5 -5 -7 -12 -3
-7 4 -8 3 -4 -4 4 -7 18 -12 32 -12 14 0 24 -6 24 -14 0 -9 16 -17 43 -21 45
-8 63 -12 100 -21 12 -3 39 -8 59 -11 29 -4 36 -9 33 -25 -3 -12 1 -18 8 -15
6 2 22 -2 35 -9 14 -7 30 -10 37 -8 7 3 16 0 20 -5 3 -6 11 -9 17 -5 5 3 8 -2
7 -12 -4 -26 11 -103 21 -109 4 -3 11 -26 15 -52 5 -27 9 -54 11 -60 3 -16 44
-83 50 -83 3 0 2 5 -1 10 -3 6 -1 10 4 10 6 0 11 -16 11 -35 0 -25 5 -38 18
-42 9 -4 20 -10 23 -15 10 -14 -3 -68 -16 -68 -7 0 -16 -14 -21 -32 -5 -18
-17 -32 -27 -34 -30 -4 -50 -14 -44 -21 9 -9 -13 -34 -24 -27 -5 3 -12 -2 -15
-10 -4 -11 -19 -16 -44 -16 -21 0 -45 -7 -54 -15 -8 -8 -20 -15 -26 -15 -6 0
-8 -4 -5 -10 3 -5 -3 -10 -14 -10 -13 0 -19 -5 -15 -14 5 -13 -14 -23 -64 -32
-42 -8 -73 -24 -67 -33 5 -9 -16 -13 -125 -27 -86 -10 -170 -28 -170 -36 0 -4
-5 -8 -11 -8 -5 0 -7 5 -3 12 4 7 -6 3 -22 -9 -20 -14 -47 -21 -89 -22 -33 -1
-64 -7 -70 -13 -7 -8 -6 -9 4 -3 9 5 12 4 7 -3 -4 -7 -22 -12 -41 -12 -19 0
-37 -5 -41 -12 -5 -7 -3 -8 6 -3 8 5 11 4 7 -2 -4 -5 -19 -10 -34 -11 -15 0
-68 -6 -118 -12 -49 -6 -112 -13 -140 -16 -27 -3 -52 -9 -55 -14 -3 -4 -29
-11 -59 -15 -30 -4 -61 -8 -70 -10 -9 -1 -43 -6 -76 -10 -32 -3 -62 -8 -65
-10 -3 -2 -39 -4 -80 -6 -71 -2 -105 -12 -95 -29 2 -4 -6 -7 -18 -7 -69 -1
-82 -3 -67 -13 12 -8 10 -10 -8 -10 -16 0 -21 4 -16 13 6 9 5 9 -7 1 -14 -12
-122 -30 -189 -33 -79 -2 -165 -13 -170 -21 -5 -8 -89 -25 -104 -21 -5 1 -3
-5 4 -14 18 -21 11 -25 -54 -32 -47 -5 -56 -9 -56 -26 0 -15 -3 -17 -13 -9
-10 8 -13 6 -15 -11 -1 -12 -4 -31 -6 -42 -4 -25 12 -58 25 -50 5 4 9 -1 9 -9
0 -9 8 -16 18 -16 14 0 15 -2 2 -10 -12 -8 -11 -10 8 -10 12 0 22 -4 22 -10 0
-5 7 -10 16 -10 10 0 14 -6 11 -14 -6 -15 20 -26 61 -26 13 0 21 -4 18 -9 -3
-5 2 -12 12 -17 22 -10 20 -9 72 -18 68 -11 80 -16 80 -32 0 -8 6 -14 13 -14
8 0 20 -11 27 -25 8 -14 21 -24 30 -23 9 2 29 -7 44 -20 16 -12 42 -22 57 -22
16 0 29 -4 29 -10 0 -5 20 -10 45 -10 41 0 61 -13 34 -22 -7 -2 4 -4 24 -5 35
-1 67 -21 67 -42 0 -11 16 -17 72 -27 21 -3 36 -9 34 -13 -3 -4 -1 -13 4 -21
7 -12 47 -16 184 -20 96 -3 177 -8 181 -11 3 -4 7 -16 8 -27 0 -11 4 -20 8
-19 4 1 25 -17 48 -40 22 -24 48 -43 57 -43 10 0 14 -5 10 -15 -4 -11 2 -15
20 -15 13 0 27 -7 30 -15 4 -8 10 -12 15 -9 5 3 9 1 9 -5 0 -16 148 -4 188 15
18 8 55 15 82 16 36 0 50 4 50 14 0 10 16 14 63 16 96 2 133 5 272 23 6 1 17
4 25 7 8 4 35 9 59 11 24 3 47 10 50 15 3 6 35 14 69 18 43 4 62 11 59 19 -3
6 0 12 6 12 7 0 37 4 67 8 30 4 66 8 79 7 18 0 20 2 10 9 -9 5 15 9 66 9 115
0 155 8 155 31 0 14 8 19 28 20 24 0 50 4 92 14 8 2 26 4 39 4 18 1 21 4 13
14 -8 9 -7 13 6 14 9 0 28 4 42 8 14 4 46 9 73 12 30 4 47 10 47 19 0 12 31
18 66 13 4 0 10 3 13 8 16 21 73 53 95 53 15 0 36 12 51 27 16 18 28 24 33 18
4 -6 27 -12 52 -14 25 -2 51 -8 59 -14 12 -9 13 -9 7 1 -4 7 -1 12 8 12 9 0
16 -4 16 -9 0 -9 42 -15 180 -27 30 -3 68 -5 83 -4 17 0 26 -4 22 -10 -4 -7 2
-7 19 0 14 5 79 10 143 10 65 1 156 3 203 5 84 4 451 14 563 15 32 0 56 4 53
8 -2 4 6 8 19 8 13 0 21 -4 19 -8 -3 -4 0 -8 5 -8 6 0 11 5 11 10 0 6 6 10 13
9 6 -1 35 -1 62 1 38 1 45 4 30 10 -18 8 -18 9 5 10 89 5 156 13 165 20 6 5
33 11 60 14 28 3 64 8 80 10 17 3 61 8 99 11 92 9 94 10 103 20 4 4 2 5 -4 1
-7 -4 -13 -3 -13 2 0 5 17 9 38 10 70 2 152 14 147 21 -5 10 22 32 60 50 17 7
38 18 49 23 12 7 16 6 11 -1 -3 -6 -2 -11 4 -11 5 0 11 5 13 12 3 7 40 15 98
20 51 4 96 12 100 17 3 6 19 13 36 15 46 6 108 18 118 24 4 2 2 8 -5 13 -10 6
-7 9 10 9 30 0 104 21 112 32 3 5 33 14 66 21 48 10 59 16 57 30 -1 11 4 17
16 17 9 0 29 9 43 20 14 11 41 21 61 22 20 2 38 9 41 16 3 7 9 11 14 8 9 -6
26 22 23 36 -1 4 12 15 28 23 17 9 30 12 30 9 0 -4 9 1 21 12 12 10 23 18 25
17 12 -8 24 -1 18 9 -4 7 -3 8 4 4 6 -4 19 -2 29 3 10 5 33 16 51 23 17 7 33
19 33 25 1 7 2 19 3 26 0 6 10 12 20 12 11 0 21 6 24 13 2 6 11 12 20 12 10 0
22 8 29 19 11 17 63 36 91 32 6 -1 17 10 22 24 6 14 14 24 19 20 5 -3 12 -1
15 4 3 4 25 11 48 15 30 5 38 10 29 16 -12 7 -12 11 2 24 8 9 23 16 32 16 9 0
13 5 10 10 -4 6 7 13 24 16 17 4 31 13 31 21 0 8 4 12 9 8 5 -3 12 -1 16 5 4
6 11 8 16 4 6 -3 13 3 16 15 3 12 13 21 25 21 10 0 16 4 13 10 -3 5 10 17 29
27 20 9 38 25 42 35 3 10 10 16 15 13 5 -4 9 -1 9 4 0 6 6 11 13 11 8 0 19 11
27 24 7 13 21 27 31 29 12 3 17 11 13 21 -4 10 2 17 19 21 14 4 28 13 31 21 3
8 12 14 21 14 8 0 15 8 15 18 0 25 10 34 25 22 12 -10 49 23 38 34 -4 3 8 11
25 17 28 9 32 16 32 46 0 19 4 32 10 28 12 -7 51 31 42 41 -4 4 -2 4 5 0 7 -4
21 2 33 14 11 11 24 20 29 20 5 0 16 10 25 23 9 12 14 16 11 10 -3 -7 -3 -13
0 -13 10 0 34 27 29 33 -3 2 11 8 30 11 37 7 70 32 61 46 -6 10 124 52 136 44
8 -5 13 9 10 29 0 4 2 6 6 6 20 -3 33 2 31 13 -2 7 6 14 17 15 11 1 50 5 88 8
44 4 65 10 61 17 -4 6 -2 8 4 4 6 -3 21 -2 34 3 27 10 141 25 176 23 16 -1 21
2 16 11 -6 8 -3 8 9 -1 9 -8 22 -10 29 -6 14 9 19 9 128 18 85 7 113 14 105
26 -3 4 2 10 10 14 16 6 22 81 6 90 -4 3 -11 27 -14 53 -11 78 -13 87 -25 91
-7 2 -12 10 -12 18 0 9 -4 12 -10 9 -5 -3 -10 1 -10 10 0 19 -23 45 -40 45 -6
0 -21 11 -33 24 -25 26 -58 34 -209 51 -38 4 -58 11 -58 20 0 7 -16 16 -36 19
-19 4 -37 13 -40 21 -3 7 -16 16 -28 19 -18 4 -22 11 -19 30 4 18 0 26 -16 31
-12 3 -21 12 -21 19 0 13 -54 48 -64 41 -3 -3 -2 1 4 7 12 14 13 31 2 24 -11
-7 -67 31 -67 45 0 13 -45 33 -45 21 0 -4 -5 1 -11 11 -5 9 -17 17 -24 17 -8
0 -15 5 -15 11 0 5 -4 8 -9 5 -4 -3 -8 4 -7 16 1 16 -8 24 -37 32 -22 6 -35
14 -31 19 4 4 -4 7 -17 8 -22 0 -48 5 -89 14 -8 2 -19 4 -25 4 -5 1 -3 6 5 11
13 9 13 10 0 11 -8 0 -23 2 -34 4 -10 2 -53 5 -96 7 -43 2 -76 6 -73 11 2 4
18 7 35 7 25 0 28 2 19 14 -10 12 -9 17 6 24 10 6 21 11 25 11 28 6 68 24 68
32 0 5 9 9 20 9 19 0 23 6 23 43 0 13 8 17 33 17 18 0 39 6 46 13 7 8 20 14
28 15 35 2 90 28 90 41 0 20 65 78 80 73 8 -3 10 0 6 7 -4 6 -1 11 6 11 8 0
22 14 31 30 12 20 26 30 42 30 13 0 27 5 30 10 3 6 15 10 26 10 12 0 19 7 19
20 0 13 7 20 19 20 10 0 21 7 25 15 3 8 9 15 13 14 18 -3 36 1 30 7 -6 6 16
34 28 34 3 0 18 11 33 25 15 14 32 23 39 21 11 -5 26 28 24 52 -1 6 5 12 14
12 8 0 15 5 15 10 0 6 5 10 10 10 6 0 20 9 32 20 12 10 25 17 30 14 4 -3 8 5
8 16 0 16 5 20 15 16 10 -3 17 3 21 19 3 14 12 25 20 25 8 0 14 7 14 16 0 9 5
12 12 8 7 -5 9 0 6 14 -4 12 0 26 8 33 8 6 14 23 14 38 0 32 14 56 28 47 14
-9 29 14 37 57 5 27 10 35 16 25 7 -10 9 -9 9 5 0 10 9 27 20 39 11 12 20 31
20 43 0 12 9 31 20 43 11 12 23 35 27 52 4 20 10 29 19 26 10 -4 15 9 20 44 5
40 9 48 25 45 11 -2 19 2 20 8 0 7 2 19 4 27 11 46 14 65 17 114 1 30 6 52 10
50 5 -3 8 14 9 38 0 24 3 52 5 63 16 70 -1 815 -18 826 -6 4 -5 9 3 12 12 4
11 7 -1 16 -8 6 -12 11 -8 11 4 0 3 12 -3 27 -8 21 -16 96 -19 173 0 13 -1 13
-10 0 -20 -31 -30 6 -42 157 -1 7 -5 10 -10 7 -5 -3 -6 -9 -3 -14 3 -5 1 -12
-5 -15 -6 -4 -10 -3 -8 2 7 30 -32 150 -45 137 -3 -4 -9 17 -13 46 -4 29 -13
54 -20 57 -8 3 -14 16 -14 29 0 13 -10 35 -22 50 -13 14 -22 29 -20 32 2 4 -7
9 -19 12 -12 3 -23 14 -25 25 -9 66 -18 92 -35 108 -10 10 -19 15 -19 11 0 -4
-8 0 -17 8 -17 14 -44 15 -103 4 -14 -2 -28 -5 -32 -5 -23 -3 -27 -88 -14
-281 5 -67 4 -91 -3 -80 -6 8 -11 23 -11 34 0 12 -5 16 -15 12 -13 -5 -19 5
-16 26 0 4 -7 9 -17 12 -9 3 -23 15 -30 27 -8 12 -9 18 -3 14 6 -3 11 -2 11 3
0 6 -11 13 -25 16 -14 4 -25 11 -25 16 0 6 -5 10 -11 10 -5 0 -8 -4 -5 -9 3
-4 -10 -1 -29 8 -19 9 -34 22 -35 29 0 6 -5 12 -11 12 -5 0 -7 -6 -3 -12 4 -7
-2 -4 -13 7 -11 11 -19 22 -16 25 2 2 -20 10 -49 16 -31 7 -54 9 -56 3 -2 -5
-10 -9 -18 -9 -16 0 -16 -2 -15 -95 1 -49 6 -73 16 -81 8 -6 15 -26 15 -43 0
-19 4 -30 10 -26 6 3 10 -2 11 -12 0 -10 2 -27 3 -38 2 -11 6 -44 10 -73 l8
-53 -26 16 c-14 10 -23 21 -20 26 3 5 -1 9 -9 9 -7 0 -20 11 -27 25 -7 14 -19
25 -26 25 -7 0 -16 16 -20 35 -3 19 -9 34 -13 33 -25 -3 -51 4 -46 12 3 6 1
10 -5 10 -6 0 -8 5 -5 10 4 6 1 9 -7 8 -7 -2 -12 3 -10 10 1 8 -3 12 -10 10
-7 -3 -20 3 -29 14 -22 24 -155 31 -169 8 -21 -34 -1 -248 22 -234 4 3 8 -4 8
-15 0 -10 4 -21 9 -23 5 -1 12 -21 15 -43 3 -22 3 -31 0 -21 -5 15 -8 16 -15
5 -7 -11 -9 -11 -9 3 0 9 -9 19 -20 23 -11 3 -19 12 -17 18 1 7 -6 11 -15 9
-11 -2 -18 3 -18 13 0 8 -3 16 -7 16 -5 1 -19 4 -33 6 -51 10 -225 14 -211 4
9 -6 14 -29 14 -70 0 -40 5 -62 14 -65 7 -3 12 -16 12 -28 -1 -13 3 -35 9 -49
6 -15 8 -30 4 -34 -3 -3 1 -3 10 0 13 5 20 -3 31 -42 8 -26 20 -47 26 -45 7 1
11 -20 11 -59 0 -59 -1 -61 -23 -54 -12 3 -41 11 -64 17 -24 5 -43 13 -43 18
0 4 -27 10 -60 14 -33 4 -58 10 -56 14 3 4 -7 9 -22 10 -14 1 -29 8 -34 15 -6
9 -8 8 -8 -3 0 -11 -2 -12 -8 -3 -10 15 -91 28 -125 19 -18 -4 -24 -12 -24
-33 0 -16 -4 -46 -8 -68 -12 -60 -9 -247 4 -270 3 -5 6 -14 7 -20 1 -5 5 -22
9 -37 6 -24 3 -29 -19 -38 -15 -5 -30 -9 -34 -7 -11 3 -52 -42 -52 -58 0 -9
-12 -18 -30 -21 -16 -4 -30 -13 -30 -20 0 -8 -5 -14 -11 -14 -5 0 -7 -6 -3
-12 5 -8 2 -8 -10 1 -9 8 -16 10 -14 5 1 -5 -3 -19 -10 -31 -7 -12 -13 -33
-14 -47 -2 -23 -9 -30 -29 -28 -4 1 -10 -14 -13 -33 -5 -24 -13 -35 -28 -37
-20 -3 -30 -29 -29 -80 0 -10 -6 -18 -13 -18 -14 0 -26 -42 -26 -92 0 -22 -4
-29 -15 -25 -8 4 -17 2 -20 -3 -4 -6 -1 -10 5 -10 7 0 6 -5 -3 -14 -14 -14
-32 -88 -28 -115 1 -7 -2 -10 -7 -7 -6 3 -13 -1 -16 -10 -3 -8 -11 -12 -17 -8
-8 4 -9 3 -5 -5 4 -6 12 -9 17 -6 5 4 9 -1 9 -9 0 -9 -5 -15 -12 -14 -6 2 -15
-15 -20 -39 -7 -32 -14 -42 -35 -48 -14 -3 -23 -8 -20 -11 3 -3 -6 -16 -19
-29 -13 -13 -24 -30 -24 -37 0 -18 -33 -45 -48 -40 -7 2 -12 -1 -12 -7 0 -6
-7 -11 -15 -11 -8 0 -15 -5 -15 -10 0 -6 -19 -28 -41 -50 -23 -22 -38 -40 -33
-40 5 0 -2 -7 -14 -16 -13 -9 -29 -13 -37 -10 -9 3 -15 -1 -15 -9 0 -25 -23
-65 -37 -65 -7 0 -13 -9 -13 -20 0 -11 -4 -20 -10 -20 -5 0 -10 -6 -10 -12 0
-7 -11 -26 -25 -42 -14 -16 -25 -35 -25 -42 0 -7 -6 -11 -14 -8 -9 3 -15 -5
-19 -26 -4 -16 -10 -30 -14 -29 -23 4 -35 -3 -30 -16 4 -8 2 -17 -4 -20 -5 -4
-7 -11 -4 -16 4 -5 -5 -13 -19 -19 -14 -5 -26 -14 -26 -20 0 -6 -5 -8 -10 -5
-6 4 -10 3 -9 -2 1 -4 -2 -19 -8 -33 -6 -14 -13 -32 -16 -40 -4 -12 -6 -12 -6
-1 -1 9 -8 6 -21 -9 -11 -13 -20 -26 -20 -29 0 -4 -15 -11 -32 -16 -18 -6 -38
-20 -44 -33 -6 -13 -15 -24 -20 -25 -5 -1 -8 -5 -6 -9 1 -5 -5 -8 -13 -8 -8 0
-24 -9 -35 -20 -11 -11 -17 -20 -12 -20 4 0 -6 -7 -22 -15 -15 -8 -35 -15 -42
-15 -8 0 -23 -9 -34 -20 -11 -11 -26 -20 -33 -20 -8 0 -17 -3 -21 -7 -3 -4
-13 -8 -20 -9 -7 -1 -29 -9 -48 -18 -20 -10 -45 -18 -57 -19 -14 -1 -17 -5
-11 -11 18 -18 11 -35 -11 -31 -12 3 -19 2 -16 -2 10 -9 -13 -44 -24 -38 -5 4
-9 -1 -9 -9 0 -9 -9 -16 -21 -16 -11 0 -17 -5 -14 -10 3 -6 4 -18 1 -28 -5
-16 -19 -19 -95 -21 -82 -2 -90 0 -96 18 -3 12 -4 24 -1 29 2 4 -9 9 -26 10
-17 1 -36 6 -42 10 -11 7 -16 8 -36 11 -5 0 -10 8 -10 16 0 8 -9 19 -19 25
-13 6 -17 17 -14 30 5 18 0 20 -36 20 -22 0 -41 4 -41 8 0 5 -18 18 -39 30
-21 12 -42 29 -45 38 -4 9 -9 14 -12 11 -4 -3 -15 3 -27 13 -11 11 -25 17 -30
13 -6 -4 -7 -1 -3 6 5 8 0 14 -14 18 -16 4 -18 8 -8 14 9 6 7 9 -9 9 -14 0
-23 6 -23 15 0 8 -4 15 -10 15 -5 0 -10 7 -10 15 0 8 -3 14 -7 14 -8 -1 -12 0
-30 6 -5 2 -18 6 -30 10 -13 4 -20 11 -17 16 3 5 0 9 -5 9 -6 0 -11 10 -11 23
0 16 -3 18 -9 9 -6 -11 -10 -10 -16 5 -5 10 -7 21 -7 26 1 4 -3 7 -9 7 -5 0
-7 5 -4 10 5 9 -15 15 -37 11 -5 0 -7 2 -5 7 4 13 -38 47 -54 44 -11 -2 -16 4
-15 20 0 13 -13 37 -28 53 -16 17 -26 24 -22 18 4 -7 3 -13 -3 -13 -10 0 -27
38 -23 53 2 7 -13 11 -35 8 -7 -1 -13 3 -13 8 0 6 -10 19 -22 31 -12 11 -23
27 -24 36 -5 30 -13 44 -28 44 -8 0 -20 19 -28 43 -10 31 -18 41 -31 39 -10
-2 -22 7 -29 23 -6 14 -17 25 -25 25 -7 0 -13 6 -13 14 0 8 -6 21 -13 28 -7 7
-16 20 -19 30 -4 9 -20 19 -37 23 -30 6 -43 24 -18 26 6 0 2 5 -10 11 -13 6
-23 17 -23 25 0 7 -4 13 -9 13 -5 0 -13 9 -16 20 -4 11 -17 32 -31 47 -13 14
-24 32 -24 39 0 8 -6 14 -14 14 -8 0 -14 8 -14 18 1 20 -19 72 -27 72 -4 0 -3
-6 0 -12 4 -7 -2 -2 -13 12 -11 13 -18 28 -16 32 3 4 0 8 -6 8 -6 0 -8 5 -5
11 4 6 -2 13 -14 16 -12 3 -21 10 -21 15 0 5 -6 6 -12 2 -8 -5 -8 -2 1 10 12
14 12 17 1 14 -13 -3 -16 2 -19 38 0 8 -5 12 -11 9 -6 -3 -10 1 -10 9 0 9 -7
16 -15 16 -8 0 -15 6 -15 14 0 8 -4 16 -10 18 -5 2 -11 13 -13 26 -2 13 -14
31 -28 40 -13 9 -25 24 -27 32 -2 8 -10 20 -18 26 -7 6 -14 19 -14 28 0 9 -4
16 -10 16 -5 0 -10 7 -10 16 0 8 -4 12 -10 9 -9 -5 -15 24 -11 48 1 5 -2 6 -7
3 -14 -8 -41 16 -60 54 -10 21 -26 36 -39 38 -14 2 -20 8 -17 17 8 20 -14 55
-34 55 -26 0 -82 50 -82 72 0 11 -4 16 -10 13 -5 -3 -10 -1 -10 5 0 6 -4 9 -8
6 -5 -3 -20 5 -33 17 -13 12 -28 21 -32 19 -14 -4 -76 18 -83 30 -5 7 -2 8 7
4 8 -4 5 0 -5 8 -11 9 -32 17 -48 17 -15 1 -32 3 -38 4 -5 1 -19 3 -31 4 -12
1 -17 5 -13 13 4 6 3 8 -2 5 -6 -3 -28 -2 -50 3 -21 5 -86 10 -142 12 -57 1
-105 5 -108 9 -2 3 -15 5 -29 4 -14 -2 -27 1 -31 6 -3 5 -22 9 -43 9 -20 0
-41 4 -46 9 -6 5 -30 11 -53 14 -24 2 -47 8 -50 13 -4 6 -21 9 -39 8 -18 0
-30 3 -27 8 3 4 10 6 15 3 5 -4 9 -2 9 3 0 5 -44 10 -97 12 -54 1 -114 3 -133
5 -19 2 -68 5 -107 6 -45 1 -73 6 -73 13 0 7 -3 7 -8 1 -12 -16 -32 -16 -26 0
5 12 -3 15 -37 16 -46 1 -67 3 -109 13 -26 6 -91 20 -100 21 -3 0 -12 5 -20
10 -8 5 -24 11 -35 12 -11 2 -21 8 -23 13 -2 6 -12 10 -22 10 -10 0 -20 5 -22
10 -2 6 -22 11 -45 13 -24 1 -43 5 -43 10 0 4 -14 7 -31 7 -16 0 -28 4 -24 9
3 6 -15 13 -40 16 -25 4 -45 11 -45 16 0 5 -17 9 -37 10 -41 0 -89 16 -63 20
8 1 -12 5 -45 9 -52 7 -86 13 -105 20 -3 1 -16 1 -30 0 -14 -1 -22 1 -18 6 12
11 -11 34 -28 27 -8 -3 -14 -1 -14 4 0 5 -11 10 -25 11 -14 1 -36 2 -50 3 -23
1 -24 3 -9 14 14 9 14 14 4 20 -9 5 -11 4 -6 -3 10 -17 -3 -15 -20 3 -10 9
-34 15 -65 15 -27 0 -49 5 -49 10 0 6 -9 10 -20 10 -11 0 -20 4 -20 9 0 5 -9
7 -19 4 -13 -3 -23 2 -31 16 -6 12 -15 19 -21 16 -5 -4 -9 -2 -9 3 0 6 -9 8
-20 5 -12 -3 -22 1 -26 11 -3 9 -15 16 -27 16 -11 0 -28 7 -37 15 -9 8 -41 18
-71 23 -33 5 -53 13 -51 20 1 7 -4 12 -10 13 -35 2 -73 11 -78 18 -6 9 -90 30
-132 33 -22 2 -25 5 -15 17 9 11 9 13 0 8 -6 -4 -18 0 -27 8 -9 9 -24 18 -33
20 -10 2 -37 8 -60 13 -23 5 -44 7 -48 4 -3 -3 -5 0 -5 6 0 7 -6 12 -14 12 -8
0 -17 7 -20 16 -3 8 -10 13 -15 10 -5 -3 -11 1 -15 9 -3 8 -17 15 -31 15 -14
0 -25 4 -25 10 0 5 -17 13 -38 16 -24 4 -39 12 -39 20 0 8 4 14 9 14 4 0 8 5
8 11 0 5 -4 8 -9 4 -5 -3 -12 -1 -16 5 -3 5 -20 10 -36 10 -18 0 -28 4 -24 10
3 6 -3 10 -15 10 -26 0 -80 27 -80 40 0 6 -12 10 -26 10 -15 0 -23 4 -19 11 4
6 -2 13 -14 16 -12 3 -21 11 -21 19 0 7 -9 18 -21 24 -11 7 -18 14 -15 17 9 9
-15 34 -25 27 -5 -3 -21 4 -35 15 -15 11 -30 18 -35 15 -5 -3 -9 0 -9 5 0 6
-7 11 -15 11 -8 0 -15 5 -15 10 0 6 -9 10 -20 10 -11 0 -20 7 -20 15 0 24 -46
65 -72 65 -19 0 -20 2 -8 10 11 7 11 10 2 10 -7 0 -10 5 -7 10 3 6 1 10 -5 10
-6 0 -8 5 -5 10 6 9 -8 14 -27 11 -5 0 -8 5 -8 12 0 19 -24 67 -33 67 -5 0 -5
-4 -2 -10 11 -17 -7 -11 -21 8 -7 9 -14 27 -14 40 0 12 -6 22 -14 22 -8 0 -17
15 -20 34 -4 19 -13 39 -21 46 -8 7 -15 18 -15 25 0 7 -14 26 -30 44 -17 17
-28 36 -25 41 3 5 0 7 -8 4 -14 -5 -27 32 -27 80 0 12 -9 28 -19 36 -11 7 -18
17 -15 22 11 18 -63 7 -84 -12z m8603 -1641 c-4 -5 -12 -9 -18 -8 -9 0 -8 2 1
6 6 2 9 10 6 15 -4 7 -2 8 5 4 6 -4 9 -12 6 -17z m-3991 -527 c3 -5 -1 -9 -9
-9 -8 0 -15 4 -15 9 0 4 4 8 9 8 6 0 12 -4 15 -8z m-3829 -732 c-25 -11 -75
-13 -58 -2 6 4 26 8 45 9 26 1 29 0 13 -7z m5424 -1023 c0 -9 -2 -8 -6 1 -2 6
-10 9 -15 6 -7 -4 -8 -2 -4 5 9 13 26 5 25 -12z m-3559 -376 c0 -11 4 -10 16
5 14 18 15 18 4 -4 -11 -22 -13 -22 -29 -8 -10 9 -20 13 -23 10 -3 -3 -9 -1
-13 5 -4 7 4 10 19 9 15 -1 26 -9 26 -17z m4674 -1889 c3 -5 -1 -9 -9 -9 -8 0
-12 4 -9 9 3 4 7 8 9 8 2 0 6 -4 9 -8z m-5579 -490 c-3 -3 -11 0 -18 7 -9 10
-8 11 6 5 10 -3 15 -9 12 -12z m555 -172 c0 -5 -2 -10 -4 -10 -3 0 -8 5 -11
10 -3 6 -1 10 4 10 6 0 11 -4 11 -10z"/>
<path d="M9420 9580 c0 -6 7 -10 15 -10 8 0 15 2 15 4 0 2 -7 6 -15 10 -8 3
-15 1 -15 -4z"/>
<path d="M2110 9059 c0 -5 5 -7 10 -4 6 3 10 8 10 11 0 2 -4 4 -10 4 -5 0 -10
-5 -10 -11z"/>
<path d="M320 8993 c8 -3 19 -11 23 -17 6 -7 7 -6 4 4 -2 8 -12 16 -23 17 -13
2 -15 1 -4 -4z"/>
<path d="M2470 8929 c0 -5 5 -7 10 -4 6 3 10 8 10 11 0 2 -4 4 -10 4 -5 0 -10
-5 -10 -11z"/>
<path d="M8343 8635 c0 -7 6 -11 14 -8 7 3 13 6 13 8 0 2 -6 5 -13 8 -8 3 -14
-1 -14 -8z"/>
<path d="M8343 8571 c1 -12 6 -17 16 -13 10 4 11 7 3 10 -7 2 -10 8 -6 13 3 5
1 9 -5 9 -5 0 -9 -9 -8 -19z"/>
<path d="M8350 8540 c-13 -8 -13 -12 3 -27 10 -11 17 -13 17 -5 0 7 -6 12 -12
12 -9 0 -8 3 2 10 8 5 12 11 9 14 -2 3 -11 1 -19 -4z"/>
<path d="M1250 7630 c-8 -5 -12 -12 -9 -15 4 -3 12 1 19 10 14 17 11 19 -10 5z"/>
<path d="M2360 6410 c-9 -6 -10 -10 -3 -10 6 0 15 5 18 10 8 12 4 12 -15 0z"/>
<path d="M2386 6403 c-6 -14 -5 -15 5 -6 7 7 10 15 7 18 -3 3 -9 -2 -12 -12z"/>
<path d="M2875 5990 c3 -5 8 -10 11 -10 2 0 4 5 4 10 0 6 -5 10 -11 10 -5 0
-7 -4 -4 -10z"/>
<path d="M3795 4720 c3 -5 8 -10 11 -10 2 0 4 5 4 10 0 6 -5 10 -11 10 -5 0
-7 -4 -4 -10z"/>
<path d="M2066 4244 c-5 -14 -4 -15 9 -4 17 14 19 20 6 20 -5 0 -12 -7 -15
-16z"/>
</g>
</svg>
